<?xml version="1.0" standalone="no"?>
<!DOCTYPE svg PUBLIC "-//W3C//DTD SVG 20010904//EN"
 "http://www.w3.org/TR/2001/REC-SVG-20010904/DTD/svg10.dtd">
<svg version="1.0" xmlns="http://www.w3.org/2000/svg"
 width="256.000000pt" height="256.000000pt" viewBox="0 0 256.000000 256.000000"
 preserveAspectRatio="xMidYMid meet">
<metadata>
Created by potrace 1.11, written by Peter Selinger 2001-2013
</metadata>
<g transform="translate(0.000000,256.000000) scale(0.100000,-0.100000)"
fill="#000000" stroke="none">
<path d="M1465 2491 c-6 -5 -28 -14 -50 -21 -22 -6 -62 -19 -90 -29 -54 -19
-150 -50 -315 -101 -58 -18 -127 -41 -155 -51 -27 -10 -97 -32 -155 -49 -58
-17 -127 -40 -155 -50 -27 -11 -63 -22 -80 -26 -52 -11 -143 -55 -151 -73 -11
-26 -35 -171 -65 -391 -5 -41 -16 -106 -24 -145 -19 -92 -45 -273 -45 -307 0
-16 4 -28 9 -28 19 0 71 75 77 110 3 19 14 60 25 90 12 30 26 80 33 110 7 30
20 78 29 105 48 149 59 184 68 221 16 68 18 69 244 129 33 8 89 24 125 35 36
11 112 33 170 50 58 17 134 39 170 50 36 11 90 26 120 34 140 37 245 67 248
71 13 13 70 -38 167 -150 61 -71 115 -133 120 -139 158 -174 197 -220 210
-246 9 -18 23 -88 31 -163 8 -73 21 -175 29 -227 14 -92 45 -348 45 -375 0
-13 -57 -53 -135 -97 -42 -24 -189 -108 -240 -138 -23 -14 -86 -50 -139 -80
-54 -30 -118 -67 -144 -82 -76 -45 -141 -78 -151 -78 -5 0 -74 44 -153 97 -79
53 -199 134 -268 180 -69 47 -140 97 -157 113 l-33 28 0 159 c0 87 -3 208 -7
270 -6 111 -6 111 20 136 15 13 64 46 109 72 46 27 94 56 108 65 14 9 43 28
65 42 22 14 72 46 111 71 39 26 80 47 91 47 11 0 59 -30 106 -67 46 -38 129
-102 182 -143 54 -41 103 -83 110 -95 16 -25 8 -347 -9 -370 -6 -8 -54 -23
-106 -34 -53 -11 -115 -27 -139 -37 -38 -15 -42 -19 -27 -29 23 -17 172 -28
258 -20 86 9 112 31 122 103 14 108 26 401 17 425 -9 23 -66 74 -368 327 -110
92 -138 110 -166 110 -18 0 -38 -5 -43 -10 -6 -6 -76 -44 -155 -85 -174 -89
-323 -167 -364 -189 -16 -9 -36 -16 -42 -16 -34 0 -88 -163 -96 -285 -3 -44
-14 -114 -26 -155 -11 -41 -25 -127 -30 -190 -6 -63 -13 -130 -17 -147 -5 -28
-2 -37 28 -65 19 -18 50 -43 69 -56 19 -13 66 -47 105 -75 39 -29 106 -77 148
-107 152 -109 222 -159 256 -185 19 -14 81 -59 136 -100 56 -40 111 -85 122
-99 16 -21 28 -26 66 -26 33 0 48 5 52 15 6 14 42 40 159 113 22 14 51 33 65
42 14 9 62 38 108 66 45 27 100 60 122 74 54 35 280 173 310 191 13 8 42 26
64 42 21 15 45 27 51 27 7 0 18 7 25 15 7 8 39 30 72 47 l59 33 -4 125 c-2 69
-13 181 -25 250 -21 125 -28 176 -58 455 -9 83 -18 160 -20 173 -3 12 -84 106
-181 210 -98 103 -182 192 -188 198 -5 6 -50 54 -100 105 -49 52 -114 120
-143 152 l-53 57 -78 0 c-42 0 -81 -4 -86 -9z"/>
</g>
</svg>
